<svg width="132" height="132" viewBox="0 0 132 132" fill="none" xmlns="http://www.w3.org/2000/svg">
<path d="M84.5455 66H117M117 25H100.773C97.9909 25 96.1364 26.8743 96.1364 29.6857V102.314C96.1364 105.126 97.9909 107 100.773 107H117M73.8818 102.314C69.7091 90.1314 58.1182 81.2286 44.6727 81.2286C31.2273 81.2286 19.1727 90.1314 15 102.314M44.2091 39.0571V25M18.7091 52.6457H69.7091M25.2 57.8C25.6636 68.1086 34.0091 76.5429 44.2091 76.5429C54.8727 76.5429 63.2182 68.1086 63.2182 57.3314V48.8971C63.2182 38.12 54.8727 29.6857 44.2091 29.6857C34.0091 29.6857 25.6636 38.12 25.2 48.4286V57.8Z" stroke="#D92C2C" stroke-width="2" stroke-miterlimit="10" stroke-linecap="round" stroke-linejoin="round"/>
</svg>
