<svg width="132" height="132" viewBox="0 0 132 132" fill="none" xmlns="http://www.w3.org/2000/svg">
<path d="M97.25 59.2129V97.25C97.25 99.7364 96.2623 102.121 94.5041 103.879C92.746 105.637 90.3614 106.625 87.875 106.625H44.125C41.6386 106.625 39.254 105.637 37.4959 103.879C35.7377 102.121 34.75 99.7364 34.75 97.25V34.75C34.75 32.2636 35.7377 29.879 37.4959 28.1209C39.254 26.3627 41.6386 25.375 44.125 25.375H63.4121C65.0691 25.3753 66.6582 26.0335 67.8301 27.2051L95.4199 54.7949C96.5915 55.9668 97.2497 57.5559 97.25 59.2129Z" stroke="#D92C2C" stroke-width="2" stroke-linejoin="round"/>
<path d="M66 26.9375V50.375C66 52.0326 66.6585 53.6223 67.8306 54.7944C69.0027 55.9665 70.5924 56.625 72.25 56.625H95.6875" stroke="#D92C2C" stroke-width="2" stroke-linecap="round" stroke-linejoin="round"/>
</svg>
