<svg width="132" height="132" viewBox="0 0 132 132" fill="none" xmlns="http://www.w3.org/2000/svg">
<path d="M96.0017 49.7792V39.9987C96.0017 28.6832 96.0017 23.0279 92.1265 19.5127C88.2463 15.9976 82.011 15.9976 69.5254 15.9976H47.4743C34.9887 15.9976 28.7534 15.9976 24.8732 19.5127C20.993 23.0279 20.998 28.6832 20.998 39.9987V72.0002C20.998 83.3158 20.998 88.9711 24.8732 92.4862C28.7534 96.0014 34.9887 96.0014 47.4743 96.0014H69.5254" stroke="#D92C2C" stroke-width="2" stroke-linecap="round"/>
<path d="M35.998 35.9985H81.0002M35.998 55.9995H40.9983M55.999 55.9995H60.9993M76 55.9995H81.0002M35.998 76.0005H40.9983M55.999 76.0005H60.9993" stroke="#D92C2C" stroke-width="2" stroke-linecap="round" stroke-linejoin="round"/>
<path d="M109.531 81.0207C108.161 77.5456 104.631 73.4704 96.6008 73.4704C87.2703 73.4704 83.3401 77.7456 82.5451 80.0307C81.3 83.0858 81.185 89.6811 92.4906 90.0562C105.991 90.5062 111.641 92.3413 110.941 99.7416C110.246 107.142 102.466 108.172 96.6008 108.572C90.5755 108.397 83.1251 107.137 81 100.747M95.9707 66V73.1803M96.0157 108.547V116.002" stroke="#D92C2C" stroke-width="2" stroke-linecap="round"/>
</svg>
