<svg width="100" height="100" viewBox="0 0 100 100" fill="none" xmlns="http://www.w3.org/2000/svg">
<path d="M74.0417 20.8083L59.6458 15.2625C54.8625 13.4167 52.475 12.5 50 12.5C47.525 12.5 45.1375 13.4167 40.3583 15.2625L25.9542 20.8083C16.9833 24.2667 12.5 25.9917 12.5 29.1667C12.5 32.3417 16.9833 34.0708 25.9583 37.525L40.3542 43.0708C45.1333 44.9125 47.5208 45.8333 50 45.8333C52.4708 45.8333 54.8625 44.9167 59.6417 43.0708L74.0417 37.5292C83.0167 34.0667 87.5 32.3375 87.5 29.1667C87.5 25.9958 83.0167 24.2625 74.0417 20.8083Z" stroke="#D92C2C" stroke-width="2" stroke-linecap="round" stroke-linejoin="round"/>
<path d="M68.75 39.6041L74.0417 41.6458C83.0208 45.0958 87.5 46.8208 87.5 50C87.5 53.1791 83.0167 54.9041 74.0417 58.3583L59.6417 63.9083C54.8625 65.7458 52.475 66.6666 50 66.6666C47.525 66.6666 45.1333 65.75 40.3542 63.9083L25.9583 58.3583C16.9833 54.9041 12.5 53.175 12.5 50C12.5 46.825 16.9833 45.1 25.9583 41.6416L31.25 39.6M79.1667 43.75L36.5 62.0333M20.8333 56.25L43.75 45.8333" stroke="#D92C2C" stroke-width="2" stroke-linecap="round" stroke-linejoin="round"/>
<path d="M69.3125 60.6542L74.0417 62.475C83.0208 65.9333 87.5 67.6583 87.5 70.8333C87.5 74.0083 83.0167 75.7375 74.0417 79.1917L59.6417 84.7375C54.8625 86.5833 52.475 87.5 50 87.5C47.525 87.5 45.1333 86.5792 40.3542 84.7375L25.9583 79.1917C16.9833 75.7333 12.5 74.0083 12.5 70.8333C12.5 67.6583 16.9833 65.9292 25.9583 62.475L30.6875 60.6542" stroke="#D92C2C" stroke-width="2" stroke-linecap="round" stroke-linejoin="round"/>
</svg>
