<svg width="100" height="100" viewBox="0 0 100 100" fill="none" xmlns="http://www.w3.org/2000/svg">
<path d="M68.5715 17.254V9M31.4286 17.254V9M13.8889 29.6349H86.1112M12.8572 38.0705C12.8572 29.3419 12.8572 24.9756 14.6565 21.641C16.2836 18.6667 18.8083 16.2821 21.8705 14.8273C25.4032 13.127 30.0254 13.127 39.2699 13.127H60.7302C69.9746 13.127 74.5969 13.127 78.1296 14.8273C81.2372 16.3213 83.7588 18.7067 85.3435 21.6368C87.1429 24.9797 87.1429 29.346 87.1429 38.0746V58.3464C87.1429 67.0749 87.1429 71.4413 85.3435 74.7759C83.7165 77.7502 81.1918 80.1348 78.1296 81.5895C74.5969 83.2857 69.9746 83.2857 60.7302 83.2857H39.2699C30.0254 83.2857 25.4032 83.2857 21.8705 81.5854C18.8089 80.1317 16.2843 77.7486 14.6565 74.7759C12.8572 71.433 12.8572 67.0667 12.8572 58.3381V38.0705Z" stroke="#D92C2C" stroke-width="2" stroke-linecap="round" stroke-linejoin="round"/>
</svg>
