<svg width="70" height="70" viewBox="0 0 70 70" fill="none" xmlns="http://www.w3.org/2000/svg">
<path d="M48 14.7778V9M22 14.7778V9M9.72222 23.4444H60.2778M9 29.3493C9 23.2393 9 20.1829 10.2596 17.8487C11.3985 15.7667 13.1658 14.0975 15.3093 13.0791C17.7822 11.8889 21.0178 11.8889 27.4889 11.8889H42.5111C48.9822 11.8889 52.2178 11.8889 54.6907 13.0791C56.866 14.1249 58.6311 15.7947 59.7404 17.8458C61 20.1858 61 23.2422 61 29.3522V43.5424C61 49.6524 61 52.7089 59.7404 55.0431C58.6015 57.1251 56.8342 58.7943 54.6907 59.8127C52.2178 61 48.9822 61 42.5111 61H27.4889C21.0178 61 17.7822 61 15.3093 59.8098C13.1662 58.7922 11.399 57.124 10.2596 55.0431C9 52.7031 9 49.6467 9 43.5367V29.3493Z" stroke="#D92C2C" stroke-width="2" stroke-linecap="round" stroke-linejoin="round"/>
</svg>
