<svg width="40" height="40" viewBox="0 0 40 40" fill="none" xmlns="http://www.w3.org/2000/svg">
<path d="M19.9993 35.8333C17.8093 35.8333 15.751 35.4178 13.8244 34.5867C11.8977 33.7556 10.2221 32.6278 8.79768 31.2033C7.37324 29.7789 6.24491 28.1028 5.41268 26.175C4.58046 24.2472 4.16491 22.1889 4.16602 20C4.16602 17.8522 4.57935 15.8211 5.40602 13.9067C6.23268 11.9922 7.35768 10.3089 8.78102 8.85667C10.2044 7.40444 11.871 6.25278 13.781 5.40167C15.691 4.55056 17.7266 4.125 19.8877 4.125C20.3121 4.125 20.7466 4.14167 21.191 4.175C21.6355 4.21056 22.081 4.26556 22.5277 4.34C22.4499 5.59 22.6027 6.72222 22.986 7.73667C23.3716 8.75222 23.9382 9.61722 24.686 10.3317C25.4338 11.0461 26.341 11.5794 27.4077 11.9317C28.4743 12.285 29.6621 12.435 30.971 12.3817C30.6332 14.0206 30.9777 15.4939 32.0043 16.8017C33.031 18.1094 34.301 18.8656 35.8144 19.07L35.8277 19.2683C35.831 19.3294 35.8327 19.395 35.8327 19.465C35.8327 21.7061 35.4149 23.8172 34.5793 25.7983C33.7438 27.7806 32.6099 29.5167 31.1777 31.0067C29.7444 32.4956 28.0688 33.6722 26.151 34.5367C24.231 35.4011 22.1805 35.8333 19.9993 35.8333ZM17.516 16.3467C18.1138 16.3467 18.6238 16.13 19.046 15.6967C19.4682 15.2633 19.6793 14.7478 19.6793 14.15C19.6793 13.5522 19.4671 13.0422 19.0427 12.62C18.6182 12.1978 18.1038 11.9867 17.4993 11.9867C16.9116 11.9867 16.4016 12.1989 15.9693 12.6233C15.5371 13.0478 15.3205 13.5622 15.3194 14.1667C15.3194 14.7544 15.536 15.2644 15.9693 15.6967C16.4027 16.1289 16.9177 16.3456 17.5143 16.3467M14.181 24.68C14.7799 24.68 15.2905 24.4633 15.7127 24.03C16.1349 23.5967 16.346 23.0817 16.346 22.485C16.346 21.8883 16.1338 21.3778 15.7093 20.9533C15.2849 20.5289 14.7705 20.3178 14.166 20.32C13.5782 20.32 13.0682 20.5322 12.636 20.9567C12.2038 21.3811 11.9871 21.8956 11.986 22.5C11.986 23.0878 12.2027 23.5978 12.636 24.03C13.0694 24.4622 13.5849 24.6789 14.1827 24.68M25.016 26.3467C25.3916 26.3467 25.7071 26.2133 25.9627 25.9467C26.2182 25.68 26.346 25.3594 26.346 24.985C26.346 24.6106 26.2171 24.2944 25.9593 24.0367C25.7005 23.7811 25.3805 23.6533 24.9993 23.6533C24.6338 23.6533 24.3182 23.7828 24.0527 24.0417C23.7871 24.3006 23.6538 24.62 23.6527 25C23.6527 25.3656 23.786 25.6811 24.0527 25.9467C24.3193 26.2122 24.6405 26.3456 25.016 26.3467ZM20.006 34.1667C23.5949 34.1667 26.7782 32.8667 29.556 30.2667C32.3371 27.6667 33.8632 24.3683 34.1344 20.3717C32.6599 19.7828 31.5105 18.9494 30.686 17.8717C29.8616 16.7939 29.3755 15.4961 29.2277 13.9783C26.9388 13.7783 25.0249 12.9578 23.486 11.5167C21.9471 10.0756 21.1043 8.17778 20.9577 5.82333C18.8421 5.68222 16.8644 5.97833 15.0244 6.71167C13.1844 7.445 11.5838 8.47444 10.2227 9.8C8.86157 11.1256 7.78935 12.6756 7.00602 14.45C6.22268 16.2244 5.83157 18.0744 5.83268 20C5.83268 23.9078 7.21657 27.2461 9.98435 30.015C12.7532 32.7828 16.0938 34.1667 20.006 34.1667Z" fill="#D92C2C"/>
</svg>
