<svg width="100" height="100" viewBox="0 0 100 100" fill="none" xmlns="http://www.w3.org/2000/svg">
<path d="M85.4756 44.7073L78.0958 29.9651C77.8922 29.5576 77.6103 29.1942 77.2662 28.8956C76.9221 28.597 76.5225 28.3692 76.0904 28.225C75.6582 28.0809 75.2019 28.0233 74.7475 28.0555C74.293 28.0877 73.8494 28.2092 73.4419 28.4128L65.8627 32.188L50.288 28.0718C50.0986 28.0215 49.8993 28.0215 49.7099 28.0718L34.1352 32.188L26.556 28.3984C26.1485 28.1947 25.7048 28.0733 25.2504 28.041C24.796 28.0088 24.3397 28.0664 23.9075 28.2106C23.4753 28.3547 23.0758 28.5826 22.7317 28.8811C22.3876 29.1797 22.1057 29.5431 21.9021 29.9507L14.5223 44.7073C14.3186 45.1148 14.1972 45.5584 14.1649 46.0129C14.1327 46.4673 14.1903 46.9236 14.3345 47.3558C14.4786 47.7879 14.7065 48.1875 15.005 48.5316C15.3036 48.8757 15.667 49.1576 16.0746 49.3612L23.9631 53.3069L40.0783 64.8174C40.1957 64.9016 40.3282 64.9624 40.4685 64.9966L58.9685 69.6216C59.161 69.672 59.3633 69.6719 59.5557 69.6212C59.7481 69.5706 59.9242 69.4712 60.067 69.3325L76.1215 53.278L83.9262 49.3757C84.3337 49.172 84.6972 48.8901 84.9957 48.546C85.2943 48.2019 85.5222 47.8024 85.6663 47.3702C85.8104 46.9381 85.868 46.4817 85.8358 46.0273C85.8036 45.5729 85.6822 45.1292 85.4785 44.7218L85.4756 44.7073ZM70.7334 55.3882L59.9803 46.7741C59.7576 46.5955 59.4768 46.5055 59.1918 46.5215C58.9069 46.5375 58.6379 46.6584 58.4367 46.8608C52.8028 52.538 46.4868 51.8067 42.4544 49.2311C42.306 49.1359 42.1808 49.0085 42.0883 48.8584C41.9957 48.7083 41.9381 48.5393 41.9196 48.3639C41.8999 48.1951 41.9185 48.024 41.9741 47.8633C42.0296 47.7027 42.1207 47.5566 42.2405 47.436L55.0922 34.9688H65.4725L74.0287 52.0842L70.7334 55.3882ZM16.5284 46.6238C16.4359 46.3375 16.4588 46.0264 16.592 45.7566L23.9833 30.9855C24.0782 30.7946 24.2239 30.6336 24.4045 30.5204C24.5851 30.4072 24.7934 30.346 25.0066 30.3438C25.1854 30.3449 25.3615 30.3874 25.5211 30.4681L32.4586 33.9368L24.044 50.7632L17.1065 47.2944C16.9708 47.2261 16.8499 47.1317 16.7507 47.0166C16.6515 46.9016 16.576 46.7681 16.5284 46.6238ZM58.8934 67.2195L41.2432 62.8055L26.0385 51.9454L34.8087 34.3907L49.9989 30.3843L58.5899 32.6563H54.6239C54.3228 32.656 54.0335 32.7732 53.8175 32.9829L40.6073 45.7971C40.2397 46.1647 39.9594 46.6103 39.7872 47.1009C39.6149 47.5915 39.5552 48.1145 39.6124 48.6312C39.6696 49.148 39.8422 49.6453 40.1175 50.0864C40.3927 50.5275 40.7637 50.901 41.2028 51.1794C46.9493 54.8534 53.9591 54.07 59.3154 49.2109L69.0771 57.0329L58.8934 67.2195ZM83.4637 46.6238C83.4161 46.7681 83.3406 46.9016 83.2414 47.0166C83.1422 47.1317 83.0213 47.2261 82.8856 47.2944L75.9481 50.7632L67.5392 33.9368L74.4767 30.4681C74.7497 30.3352 75.0639 30.315 75.3517 30.4118C75.6394 30.5086 75.8775 30.7146 76.0146 30.9855L83.3943 45.7421C83.5353 46.0144 83.5623 46.3316 83.4695 46.6238H83.4637ZM49.9816 75.7266C49.9174 75.9751 49.7724 76.1952 49.5693 76.3522C49.3662 76.5093 49.1167 76.5942 48.86 76.5938C48.7626 76.5944 48.6655 76.5828 48.571 76.5591L36.5228 73.5442C36.3817 73.5097 36.2483 73.4489 36.1297 73.365L28.5158 67.9219C28.2663 67.7437 28.0978 67.4736 28.0473 67.1711C27.9969 66.8686 28.0687 66.5585 28.247 66.3089C28.4252 66.0594 28.6953 65.8909 28.9978 65.8405C29.3003 65.7901 29.6104 65.8619 29.86 66.0401L37.2946 71.3502L49.1462 74.3131C49.2942 74.3505 49.4333 74.4168 49.5555 74.5082C49.6778 74.5997 49.7807 74.7144 49.8584 74.8458C49.936 74.9772 49.9869 75.1227 50.008 75.2739C50.0292 75.4251 50.0202 75.5789 49.9816 75.7266Z" fill="#D92C2C"/>
</svg>
