<svg width="23" height="23" viewBox="0 0 23 23" fill="none" xmlns="http://www.w3.org/2000/svg">
<path d="M15.3643 14.2172C19.0291 14.2172 22.0008 11.2581 22.0008 7.60807C22.0008 3.95804 19.0291 1 15.3643 1C11.6996 1 8.73106 3.95909 8.73106 7.60807C8.73106 9.29868 9.50181 10.5283 9.50181 10.5283L1.4772 18.5193C1.11703 18.8784 0.612993 19.8109 1.4772 20.672L2.40336 21.5939C2.76353 21.9016 3.66869 22.3321 4.40899 21.5939L5.49056 20.5187C6.57002 21.5939 7.8049 20.9796 8.26798 20.3643C9.03873 19.289 8.11362 18.2127 8.11362 18.2127L8.42234 17.905C9.90294 19.3814 11.1998 18.5204 11.6629 17.905C12.4347 16.8298 11.6629 15.7534 11.6629 15.7534C11.3541 15.1392 10.7367 15.1392 11.5085 14.3705L12.4347 13.4485C13.1749 14.0628 14.6975 14.2172 15.3664 14.2172H15.3643Z" stroke="#FAFAFA" stroke-linejoin="round"/>
<path d="M17.6775 7.60917C17.6761 8.22168 17.4316 8.80857 16.9976 9.24079C16.5636 9.67301 15.9757 9.91519 15.3632 9.91407C14.7507 9.91519 14.1628 9.67301 13.7288 9.24079C13.2948 8.80857 13.0502 8.22168 13.0488 7.60917C13.0494 7.3058 13.1097 7.00551 13.2263 6.72544C13.3429 6.44537 13.5135 6.19101 13.7284 5.97688C13.9433 5.76276 14.1983 5.59305 14.4788 5.47747C14.7593 5.36188 15.0598 5.30267 15.3632 5.30323C15.6665 5.30267 15.9671 5.36188 16.2476 5.47747C16.528 5.59305 16.783 5.76276 16.9979 5.97688C17.2128 6.19101 17.3835 6.44537 17.5001 6.72544C17.6167 7.00551 17.677 7.3058 17.6775 7.60917Z" stroke="#FAFAFA"/>
</svg>
