<svg width="100" height="100" viewBox="0 0 100 100" fill="none" xmlns="http://www.w3.org/2000/svg">
<path d="M74.1886 47.4829C73.8704 44.1649 74.2771 40.8106 73.9742 37.4954C73.5868 37.207 73.1304 37.0426 72.6863 36.8616C68.9723 35.4226 65.2748 33.9363 61.5662 32.4751C57.7387 30.9986 53.9555 29.4064 50.1155 27.9619C50.0561 22.8093 50.1432 17.6512 50.0215 12.5H48.4266C48.2606 17.3977 48.4404 22.3106 48.3823 27.2139C47.0862 26.7918 45.8675 26.1455 44.5493 25.7819C44.0776 25.7151 43.7442 26.1246 43.3721 26.3433C38.106 30.3216 32.7873 34.2261 27.5088 38.1849C26.6595 38.834 25.7299 39.3926 24.9622 40.1503C24.7796 40.6546 24.864 41.202 24.8391 41.7286C24.8667 44.7806 24.8266 47.8325 24.8488 50.8887C22.9661 51.9376 21.1499 53.1202 19.2119 54.0675C18.9284 55.3253 19.0017 56.6222 19.0293 57.9023C19.1649 61.2398 18.8468 64.5871 19.1801 67.9177C19.6906 67.9205 20.2286 68.0319 20.7003 67.784C22.0795 67.1627 23.4323 66.4843 24.8266 65.9077C24.8515 68.0598 24.7671 70.2147 24.8737 72.3668C24.8861 72.9059 25.5321 72.9783 25.9346 72.9588C30.249 72.9616 34.5648 72.9616 38.8834 72.9519C39.3426 73.0368 39.8932 72.6761 39.8849 72.1816C39.9125 67.8104 39.8531 63.4407 39.9167 59.0668C41.1782 58.5124 42.4439 57.958 43.6778 57.3423C43.7124 65.0217 43.646 72.7011 43.6681 80.3847C43.6737 80.8932 43.6654 81.4016 43.6598 81.9114H43.6972V87.5H45.4498V78.9709H45.3875C45.3931 71.63 45.4 64.289 45.4152 56.9509C45.4152 56.3645 45.3585 55.785 45.2893 55.2083C43.3348 55.1512 41.6984 56.5205 39.9167 57.1793C39.86 52.5296 39.8973 47.8799 39.8918 43.2302C39.4077 43.0185 38.8336 42.7329 38.3619 43.141C34.4459 45.3823 30.534 47.6292 26.6346 49.8983C26.4962 46.909 26.499 43.9044 26.6415 40.9165C27.2335 40.5641 27.8062 40.1782 28.354 39.7603C33.1442 36.0968 38.0451 32.5852 42.8478 28.9328C43.4523 28.4703 44.0817 28.0427 44.736 27.6582C45.9325 28.1722 47.1318 28.6793 48.3712 29.0651C48.4404 32.8749 48.3934 36.6819 48.421 40.4916C48.4529 40.9485 48.374 41.5976 48.9591 41.7244C54.2681 43.3667 59.62 44.8934 64.9359 46.5232C67.4133 47.2113 69.8396 48.0735 72.3419 48.6683C72.3737 53.1662 72.3419 57.6627 72.3571 62.1606C65.4837 61.01 58.6088 59.8566 51.7353 58.7158C50.7131 58.5542 49.6867 58.2784 48.6451 58.4302L48.6576 58.6266C48.4086 59.5265 48.5248 60.4751 48.5026 61.4C48.5441 65.0538 48.4584 68.7145 48.5746 72.3696C48.6465 72.5089 48.789 72.7875 48.8581 72.9268C56.859 72.9992 64.857 72.9366 72.8565 72.9588C73.3752 73.016 74.1498 72.8739 74.0405 72.1732C74.1318 69.5419 74.0502 66.905 74.0724 64.2723C76.103 64.5161 78.1198 64.8643 80.1311 65.2488C80.4022 65.1373 80.6719 65.0301 80.9431 64.9256C81.015 59.7939 81.0219 54.6623 80.9458 49.532C78.7326 48.7338 76.4544 48.1153 74.1886 47.4843V47.4829ZM24.8335 63.9895C23.471 64.5662 22.1389 65.2167 20.7764 65.7934C20.7612 62.2846 20.7695 58.7757 20.7612 55.2682C22.1403 54.5132 23.4904 53.7122 24.8405 52.9099C24.8654 56.6027 24.8128 60.2982 24.8335 63.9909V63.9895ZM38.1434 71.187C34.2785 71.2148 30.4136 71.1243 26.5516 71.1995C26.5668 69.1867 26.5197 67.178 26.5612 65.168C30.3569 63.2847 34.3006 61.7134 38.1088 59.8622C38.1848 63.6343 38.1212 67.4121 38.1434 71.187ZM26.6747 51.822C30.552 49.7423 34.2909 47.4035 38.1696 45.321C38.0908 49.5431 38.1973 53.7638 38.1129 57.9859C34.2481 59.6881 30.4275 61.5003 26.546 63.1649C26.6304 59.3872 26.3953 55.59 26.6747 51.822ZM72.346 71.2413C64.9843 71.1271 57.6129 71.1341 50.2511 71.2385C50.2317 67.5778 50.2317 63.9143 50.229 60.2536C57.6129 61.414 64.9622 62.7707 72.3488 63.8893C72.3709 66.3395 72.346 68.7897 72.346 71.2427V71.2413ZM72.3626 46.9034C64.9663 44.697 57.5727 42.4696 50.1667 40.2924C50.1072 36.8058 50.1321 33.3165 50.1225 29.8299C57.5382 32.7871 64.9843 35.6678 72.3779 38.6849C72.3239 41.4235 72.3557 44.1649 72.3626 46.9034ZM79.3343 50.8107C79.2333 54.8935 79.3979 58.979 79.2845 63.0604C79.2776 63.1398 79.2721 63.2986 79.2652 63.3739C77.5471 62.9587 75.7807 62.7874 74.053 62.4169C74.0945 58.0527 74.0807 53.6886 74.0599 49.3244C75.8471 49.7047 77.5762 50.319 79.3385 50.801L79.3357 50.8107H79.3343Z" fill="#D92C2C"/>
</svg>
