<svg width="22" height="21" viewBox="0 0 22 21" fill="none" xmlns="http://www.w3.org/2000/svg">
<g clip-path="url(#clip0_4030_4685)">
<path d="M2.76562 5.63196H8.01562M2.76562 16.132H8.01562M11.9531 4.53821H15.0156M11.9531 8.47571H15.0156M11.9531 12.4132H15.0156M11.9531 16.3507H15.0156M5.39062 20.2882C4.69443 20.2882 4.02675 20.0116 3.53447 19.5194C3.04219 19.0271 2.76563 18.3594 2.76562 17.6632V5.65821C2.76674 5.25095 2.8626 4.84953 3.04562 4.48571L4.79563 0.985708C4.85027 0.877077 4.93403 0.785767 5.03755 0.721963C5.14106 0.65816 5.26027 0.624373 5.38187 0.624373C5.50348 0.624373 5.62269 0.65816 5.7262 0.721963C5.82972 0.785767 5.91348 0.877077 5.96812 0.985708L7.71812 4.48571C7.90115 4.84953 7.99701 5.25095 7.99812 5.65821V17.6632C7.99814 18.3564 7.72398 19.0214 7.23548 19.5132C6.74697 20.005 6.08378 20.2836 5.39062 20.2882ZM13.2656 0.600708H18.5156C18.5156 0.600708 19.8281 0.600708 19.8281 1.91321V18.9757C19.8281 18.9757 19.8281 20.2882 18.5156 20.2882H13.2656C13.2656 20.2882 11.9531 20.2882 11.9531 18.9757V1.91321C11.9531 1.91321 11.9531 0.600708 13.2656 0.600708Z" stroke="#FAFAFA" stroke-linecap="round" stroke-linejoin="round"/>
</g>
<defs>
<clipPath id="clip0_4030_4685">
<rect width="21" height="21" fill="white" transform="translate(0.666016 0.000732422)"/>
</clipPath>
</defs>
</svg>
