<svg width="21" height="21" viewBox="0 0 21 21" fill="none" xmlns="http://www.w3.org/2000/svg">
<g clip-path="url(#clip0_4073_3478)">
<path d="M2.09961 5.63202H7.34961M2.09961 16.132H7.34961M11.2871 4.53827H14.3496M11.2871 8.47577H14.3496M11.2871 12.4133H14.3496M11.2871 16.3508H14.3496M4.72461 20.2883C4.02842 20.2883 3.36074 20.0117 2.86845 19.5194C2.37617 19.0271 2.09961 18.3595 2.09961 17.6633V5.65827C2.10072 5.25101 2.19658 4.84959 2.37961 4.48577L4.12961 0.985769C4.18426 0.877138 4.26801 0.785828 4.37153 0.722024C4.47505 0.658221 4.59426 0.624434 4.71586 0.624434C4.83746 0.624434 4.95667 0.658221 5.06019 0.722024C5.16371 0.785828 5.24746 0.877138 5.30211 0.985769L7.05211 4.48577C7.23513 4.84959 7.33099 5.25101 7.33211 5.65827V17.6633C7.33212 18.3564 7.05797 19.0215 6.56946 19.5133C6.08096 20.005 5.41777 20.2836 4.72461 20.2883ZM12.5996 0.600769H17.8496C17.8496 0.600769 19.1621 0.600769 19.1621 1.91327V18.9758C19.1621 18.9758 19.1621 20.2883 17.8496 20.2883H12.5996C12.5996 20.2883 11.2871 20.2883 11.2871 18.9758V1.91327C11.2871 1.91327 11.2871 0.600769 12.5996 0.600769Z" stroke="#D92C2C" stroke-linecap="round" stroke-linejoin="round"/>
</g>
<defs>
<clipPath id="clip0_4073_3478">
<rect width="21" height="21" fill="white" transform="translate(0 0.000793457)"/>
</clipPath>
</defs>
</svg>
