<svg width="100" height="100" viewBox="0 0 100 100" fill="none" xmlns="http://www.w3.org/2000/svg">
<path d="M8.21429 87.1427V77.7177C8.21429 71.9512 10.8143 66.2962 16.0607 63.9052C22.4586 60.9848 30.1379 59.2855 38.3929 59.2855C44.1732 59.2855 49.6704 60.1212 54.6429 61.6209" stroke="#D92C2C" stroke-width="2" stroke-linecap="round" stroke-linejoin="round"/>
<path d="M38.3929 45.3569C47.3675 45.3569 54.6429 38.0816 54.6429 29.1069C54.6429 20.1323 47.3675 12.8569 38.3929 12.8569C29.4183 12.8569 22.1429 20.1323 22.1429 29.1069C22.1429 38.0816 29.4183 45.3569 38.3929 45.3569Z" stroke="#D92C2C" stroke-width="2" stroke-linecap="round" stroke-linejoin="round"/>
<path d="M61.6072 13.5303C64.959 14.5333 67.8978 16.5907 69.9872 19.3969C72.0766 22.2031 73.2051 25.6084 73.2051 29.1071C73.2051 32.6057 72.0766 36.011 69.9872 38.8172C67.8978 41.6234 64.959 43.6808 61.6072 44.6838M77.8572 59.2856V87.1428M63.9286 73.2142H91.7857" stroke="#D92C2C" stroke-width="2" stroke-linecap="round" stroke-linejoin="round"/>
</svg>
