<svg width="100" height="100" viewBox="0 0 100 100" fill="none" xmlns="http://www.w3.org/2000/svg">
<path d="M20.75 75.9999V69.4024C20.75 65.3659 22.57 61.4074 26.2425 59.7336C30.721 57.6894 36.0965 56.4999 41.875 56.4999C45.9213 56.4999 49.7693 57.0849 53.25 58.1346" stroke="#D92C2C" stroke-width="2" stroke-linecap="round" stroke-linejoin="round"/>
<path d="M41.875 46.7499C48.1572 46.7499 53.25 41.6571 53.25 35.3749C53.25 29.0926 48.1572 23.9999 41.875 23.9999C35.5928 23.9999 30.5 29.0926 30.5 35.3749C30.5 41.6571 35.5928 46.7499 41.875 46.7499Z" stroke="#D92C2C" stroke-width="2" stroke-linecap="round" stroke-linejoin="round"/>
<path d="M58.125 24.4712C60.4712 25.1733 62.5284 26.6135 63.991 28.5778C65.4536 30.5422 66.2436 32.9259 66.2436 35.3749C66.2436 37.824 65.4536 40.2077 63.991 42.1721C62.5284 44.1364 60.4712 45.5766 58.125 46.2787M69.5 56.4999V75.9999M59.75 66.2499H79.25" stroke="#D92C2C" stroke-width="2" stroke-linecap="round" stroke-linejoin="round"/>
</svg>
