<svg width="61" height="60" viewBox="0 0 61 60" fill="none" xmlns="http://www.w3.org/2000/svg">
<rect x="6.5" y="6" width="48" height="48" rx="24" stroke="#D92C2C" stroke-width="2"/>
<path d="M42.8452 24.3451C41.702 28.8034 39.3818 32.8727 36.1272 36.1272C32.8727 39.3818 28.8034 41.702 24.3451 42.8452C20.9146 43.7185 18 40.7686 18 37.2275L18 35.6253C18 34.7408 18.7194 34.031 19.5991 33.9428C21.0578 33.7978 22.4897 33.4533 23.8548 32.919L26.2903 35.3545C30.2558 33.4535 33.4535 30.2558 35.3545 26.2903L32.919 23.8548C33.4539 22.4898 33.7989 21.0579 33.9444 19.5991C34.031 18.7178 34.7408 18 35.6253 18L37.2276 18C40.7686 18 43.7185 20.9146 42.8452 24.3451Z" stroke="#D92C2C" stroke-width="2" stroke-linecap="round" stroke-linejoin="round"/>
</svg>
