<svg width="23" height="19" viewBox="0 0 23 19" fill="none" xmlns="http://www.w3.org/2000/svg">
<path d="M21.7678 12.6668V15.8397C21.7679 16.1188 21.713 16.3951 21.6062 16.653C21.4995 16.9108 21.343 17.1451 21.1457 17.3424C20.9484 17.5398 20.7142 17.6963 20.4563 17.8032C20.1985 17.91 19.9222 17.9649 19.6432 17.9649H3.45861C3.17956 17.9649 2.90324 17.91 2.64543 17.8032C2.38762 17.6963 2.15338 17.5398 1.95608 17.3424C1.75879 17.1451 1.6023 16.9108 1.49556 16.653C1.38882 16.3951 1.33391 16.1188 1.33398 15.8397V3.12519C1.33391 2.84609 1.38883 2.56971 1.49561 2.31183C1.60238 2.05396 1.75892 1.81965 1.95627 1.6223C2.15363 1.42494 2.38793 1.2684 2.6458 1.16163C2.90367 1.05485 3.18005 0.999929 3.45915 1H19.6432C19.9222 1 20.1985 1.05497 20.4563 1.16178C20.7142 1.26859 20.9484 1.42514 21.1457 1.62249C21.343 1.81984 21.4995 2.05412 21.6062 2.31196C21.713 2.56979 21.7679 2.84613 21.7678 3.12519V6.40856" stroke="#FAFAFA" stroke-linecap="round" stroke-linejoin="round"/>
<path d="M21.6825 12.6726H16.0996C15.6879 12.6728 15.2802 12.5918 14.8998 12.4343C14.5194 12.2768 14.1738 12.0459 13.8827 11.7548C13.5916 11.4637 13.3607 11.1181 13.2032 10.7377C13.0457 10.3573 12.9647 9.94958 12.9648 9.53788C12.9646 9.12613 13.0456 8.71838 13.203 8.33793C13.3605 7.95748 13.5914 7.61178 13.8825 7.32061C14.1736 7.02944 14.5192 6.79849 14.8997 6.64097C15.2801 6.48345 15.6878 6.40245 16.0996 6.40259H21.683C22.0411 6.40259 22.3318 6.69334 22.3318 7.05194V12.0238C22.3318 12.3819 22.0411 12.6726 21.6825 12.6726Z" stroke="#FAFAFA" stroke-linecap="round" stroke-linejoin="round"/>
<path d="M16.3881 11.031C17.1925 11.031 17.8445 10.3789 17.8445 9.5745C17.8445 8.77012 17.1925 8.11804 16.3881 8.11804C15.5837 8.11804 14.9316 8.77012 14.9316 9.5745C14.9316 10.3789 15.5837 11.031 16.3881 11.031Z" stroke="#FAFAFA" stroke-linecap="round" stroke-linejoin="round"/>
</svg>
