<svg width="265" height="273" viewBox="0 0 265 273" fill="none" xmlns="http://www.w3.org/2000/svg">
<g clip-path="url(#clip0_250_10787)">
<path d="M263.857 157.487C254.436 154.106 244.732 151.492 235.083 148.822C233.73 134.777 235.458 120.586 234.172 106.555C232.524 105.334 230.58 104.638 228.69 103.873C212.875 97.7839 197.128 91.4915 181.34 85.3087C165.044 79.0574 148.933 72.3247 132.584 66.2084C132.334 44.4002 132.706 22.5705 132.182 0.770081H125.39C124.683 21.4982 125.449 42.2871 125.199 63.0426C119.678 61.2582 114.49 58.5229 108.875 56.9791C106.865 56.6974 105.444 58.427 103.863 59.3525C81.4417 76.187 58.792 92.7124 36.3163 109.465C32.6977 112.214 28.7449 114.575 25.4743 117.78C24.6963 119.913 25.0599 122.234 24.9523 124.46C25.0736 137.378 24.8996 150.295 24.9934 163.224C16.9782 167.664 9.24653 172.667 0.990913 176.678C-0.215272 182.004 0.0936055 187.49 0.212855 192.908C0.789556 207.032 -0.565202 221.196 0.856024 235.293C3.02794 235.307 5.3191 235.777 7.32876 234.73C13.1994 232.1 18.9625 229.23 24.8996 226.79C25.0071 235.898 24.6454 245.02 25.1009 254.128C25.1537 256.407 27.9023 256.716 29.6168 256.636C47.9911 256.65 66.3653 256.65 84.7533 256.609C86.7102 256.971 89.0561 255.442 89.015 253.349C89.1362 234.851 88.8801 216.356 89.1499 197.844C94.524 195.496 99.9118 193.15 105.165 190.548C105.29 217.952 105.11 245.356 105.106 272.766H112.453C112.474 244.802 112.501 216.839 112.56 188.883C112.56 186.402 112.32 183.947 112.024 181.505C103.702 181.264 96.733 187.057 89.148 189.848C88.9075 170.17 89.0678 150.493 89.0404 130.815C86.976 129.917 84.5383 128.71 82.5267 130.439C65.8551 139.923 49.1953 149.432 32.5902 159.037C31.9998 146.388 32.0135 133.672 32.6176 121.022C35.1375 119.533 37.5772 117.898 39.9075 116.127C60.3051 100.621 81.1719 85.7587 101.624 70.3075C104.197 68.3489 106.877 66.5391 109.665 64.9151C114.757 67.0889 119.864 69.2333 125.144 70.871C125.439 86.9933 125.238 103.104 125.359 119.226C125.494 121.157 125.158 123.908 127.65 124.445C150.259 131.392 173.043 137.859 195.679 144.752C206.226 147.663 216.56 151.311 227.214 153.833C227.349 172.866 227.214 191.9 227.281 210.934C198.012 206.064 168.741 201.182 139.471 196.353C135.116 195.668 130.747 194.502 126.311 195.146L126.364 195.978C125.304 199.787 125.801 203.798 125.707 207.715C125.881 223.18 125.519 238.674 126.016 254.139C126.325 254.73 126.927 255.91 127.222 256.501C161.29 256.81 195.345 256.542 229.411 256.636C231.622 256.877 234.92 256.274 234.451 253.31C234.84 242.177 234.492 231.016 234.586 219.87C243.231 220.903 251.821 222.378 260.385 224C261.539 223.53 262.69 223.075 263.843 222.632C264.152 200.916 264.178 179.2 263.857 157.484V157.487ZM24.9269 218.678C19.1247 221.12 13.4555 223.869 7.65132 226.311C7.58485 211.462 7.62395 196.613 7.58485 181.765C13.4555 178.572 19.2049 175.179 24.9543 171.784C25.0618 187.412 24.8331 203.051 24.9269 218.678ZM81.6039 249.14C65.1455 249.262 48.689 248.872 32.2442 249.193C32.3107 240.676 32.1093 232.171 32.2852 223.667C48.4485 215.7 65.2413 209.048 81.4573 201.213C81.7799 217.175 81.5101 233.165 81.6039 249.14ZM32.7662 167.184C49.2774 158.386 65.1983 148.485 81.7095 139.673C81.3752 157.54 81.8307 175.406 81.469 193.274C65.0106 200.476 48.7418 208.15 32.2168 215.191C32.5785 199.202 31.5737 183.133 32.7662 167.184ZM227.243 249.369C195.896 248.886 164.508 248.913 133.161 249.355C133.081 233.863 133.081 218.357 133.067 202.865C164.508 207.774 195.802 213.515 227.257 218.25C227.351 228.618 227.243 238.987 227.243 249.369ZM227.31 146.366C195.816 137.031 164.334 127.6 132.799 118.385C132.545 103.63 132.653 88.8619 132.612 74.1072C164.188 86.6216 195.896 98.8151 227.376 111.584C227.148 123.173 227.283 134.775 227.31 146.364V146.366ZM256.995 162.905C256.567 180.182 257.263 197.472 256.78 214.749C256.753 215.084 256.727 215.755 256.7 216.078C249.383 214.321 241.864 213.597 234.506 212.028C234.68 193.557 234.627 175.087 234.533 156.617C242.146 158.227 249.504 160.829 257.009 162.868L256.995 162.909V162.905Z" fill="#F4F4F4"/>
</g>
<defs>
<clipPath id="clip0_250_10787">
<rect width="264" height="272" fill="white" transform="translate(0.0876465 0.770081)"/>
</clipPath>
</defs>
</svg>
