<svg width="123" height="31" viewBox="0 0 123 31" fill="none" xmlns="http://www.w3.org/2000/svg">
<g opacity="0.5">
<path d="M47.7156 17.8413C47.5256 18.0302 47.2501 18.1813 46.8892 18.2947C46.5282 18.408 46.0057 18.5308 45.3218 18.6631C44.2578 18.8709 43.5264 19.1354 43.1274 19.4565C42.7284 19.7777 42.5289 20.2406 42.5289 20.8451C42.5289 21.8842 43.1274 22.4037 44.3243 22.4037C44.7993 22.4037 45.2363 22.3282 45.6352 22.177C46.0532 22.007 46.4047 21.7897 46.6897 21.5252C46.9937 21.2419 47.2311 20.9207 47.4021 20.5617C47.5921 20.1839 47.6871 19.7872 47.6871 19.3715L47.7156 17.8413ZM47.9721 25.0392C47.8581 24.6802 47.7821 23.8962 47.7441 23.4239C47.3071 23.9151 46.7277 24.3118 46.0057 24.6141C45.2838 24.8975 44.4478 25.0392 43.4979 25.0392C41.883 25.0392 40.6956 24.6897 39.9356 23.9907C39.1947 23.2728 38.8242 22.3471 38.8242 21.2135C38.8242 20.2122 38.9857 19.4188 39.3087 18.8331C39.6316 18.2285 40.0781 17.7562 40.6481 17.4162C41.218 17.0761 41.8925 16.8305 42.6714 16.6794C43.4694 16.5094 44.3338 16.3582 45.2648 16.226C46.1957 16.0937 46.8227 15.9237 47.1456 15.7159C47.4686 15.4892 47.6301 15.1302 47.6301 14.639C47.6301 14.1856 47.4116 13.8361 46.9747 13.5905C46.5567 13.326 45.9867 13.1938 45.2648 13.1938C44.4098 13.1938 43.7924 13.3827 43.4124 13.7605C43.0514 14.1384 42.8234 14.639 42.7284 15.2625H39.2802C39.2992 14.5446 39.4131 13.8833 39.6221 13.2788C39.8501 12.6742 40.2016 12.1547 40.6766 11.7202C41.1705 11.2857 41.807 10.955 42.5859 10.7283C43.3649 10.4827 44.3148 10.3599 45.4358 10.3599C46.5377 10.3599 47.4686 10.4827 48.2286 10.7283C49.0075 10.9739 49.625 11.3329 50.081 11.8052C50.5559 12.2586 50.8979 12.8348 51.1069 13.5338C51.3159 14.2139 51.4204 14.9885 51.4204 15.8576V25.0392H47.9721Z" fill="#FAFAFA"/>
<path d="M53.0527 25.0392V5.62744H56.7575V25.0392H53.0527Z" fill="#FAFAFA"/>
<path d="M58.3984 25.0392V10.7283H62.1032V25.0392H58.3984ZM58.3984 9.05638V5.62744H62.1032V9.05638H58.3984Z" fill="#FAFAFA"/>
<path d="M76.4202 19.6266C76.3253 20.4389 76.0878 21.1757 75.7078 21.837C75.3468 22.4982 74.8813 23.065 74.3114 23.5373C73.7414 24.0096 73.086 24.378 72.345 24.6425C71.6231 24.9069 70.8346 25.0392 69.9797 25.0392C69.0297 25.0392 68.1558 24.8881 67.3578 24.5858C66.5789 24.2646 65.9044 23.7923 65.3345 23.1689C64.7645 22.5265 64.318 21.7425 63.9951 20.8168C63.6911 19.8722 63.5391 18.7764 63.5391 17.5295C63.5391 16.2826 63.6911 15.2058 63.9951 14.299C64.318 13.3921 64.7645 12.6553 65.3345 12.0886C65.9044 11.5029 66.5884 11.0684 67.3863 10.785C68.2033 10.5016 69.1057 10.3599 70.0937 10.3599C71.0056 10.3599 71.832 10.4827 72.573 10.7283C73.3329 10.9739 73.9884 11.3329 74.5394 11.8052C75.1093 12.2775 75.5558 12.8443 75.8788 13.5055C76.2018 14.1667 76.3917 14.9035 76.4487 15.7159H72.7155C72.6205 14.998 72.326 14.4407 71.832 14.0439C71.3571 13.6283 70.7681 13.4205 70.0652 13.4205C69.6662 13.4205 69.2957 13.4866 68.9537 13.6188C68.6118 13.7511 68.3078 13.9778 68.0418 14.299C67.7948 14.6012 67.5953 15.0169 67.4433 15.5458C67.2913 16.0559 67.2153 16.6888 67.2153 17.4445C67.2153 18.9748 67.4908 20.1083 68.0418 20.8451C68.5928 21.5819 69.2292 21.9503 69.9512 21.9503C70.6731 21.9503 71.2906 21.7519 71.8035 21.3552C72.3165 20.9585 72.611 20.3823 72.687 19.6266H76.4202Z" fill="#FAFAFA"/>
<path d="M84.4131 21.9503C86.674 21.9503 87.8044 20.5334 87.8044 17.6996C87.8044 14.8846 86.674 13.4771 84.4131 13.4771C82.1523 13.4771 81.0218 14.8846 81.0218 17.6996C81.0218 20.5334 82.1523 21.9503 84.4131 21.9503ZM84.4131 25.0392C83.2732 25.0392 82.2568 24.8597 81.3638 24.5008C80.4709 24.1418 79.7109 23.6412 79.084 22.9988C78.476 22.3565 78.0105 21.5819 77.6876 20.6751C77.3646 19.7683 77.2031 18.7764 77.2031 17.6996C77.2031 16.6038 77.3646 15.6025 77.6876 14.6957C78.0295 13.7889 78.514 13.0143 79.141 12.372C79.7679 11.7296 80.5184 11.2384 81.3923 10.8984C82.2853 10.5394 83.2922 10.3599 84.4131 10.3599C85.515 10.3599 86.503 10.5394 87.3769 10.8984C88.2509 11.2384 88.9918 11.7296 89.5998 12.372C90.2267 12.9954 90.7017 13.7605 91.0247 14.6674C91.3667 15.5742 91.5377 16.5849 91.5377 17.6996C91.5377 18.8142 91.3667 19.8249 91.0247 20.7318C90.7017 21.6197 90.2267 22.3848 89.5998 23.0272C88.9918 23.6695 88.2414 24.1701 87.3484 24.5291C86.4745 24.8692 85.496 25.0392 84.4131 25.0392Z" fill="#FAFAFA"/>
<path d="M109.323 25.0392V16.226C109.323 15.3758 109.123 14.6863 108.724 14.1573C108.325 13.6283 107.793 13.3638 107.129 13.3638C106.445 13.3638 105.875 13.6472 105.419 14.2139C104.982 14.7807 104.763 15.4892 104.763 16.3393V25.0392H101.058V16.2826C101.058 15.7159 101.02 15.253 100.944 14.8941C100.868 14.5351 100.735 14.2517 100.545 14.0439C100.374 13.8361 100.146 13.6944 99.861 13.6188C99.576 13.5244 99.234 13.4771 98.8351 13.4771C97.3342 13.4771 96.5837 14.384 96.5837 16.1976V25.0392H92.8789V10.7283H96.3557V12.7687C96.8307 11.843 97.4006 11.2101 98.0656 10.87C98.7306 10.53 99.5285 10.3599 100.46 10.3599C100.935 10.3599 101.353 10.3977 101.714 10.4733C102.094 10.5489 102.426 10.6811 102.711 10.87C103.015 11.0401 103.3 11.2668 103.566 11.5501C103.832 11.8335 104.098 12.1736 104.364 12.5703C104.744 11.7957 105.248 11.2384 105.875 10.8984C106.502 10.5394 107.262 10.3599 108.154 10.3599C108.857 10.3599 109.503 10.4827 110.092 10.7283C110.681 10.955 111.185 11.2857 111.603 11.7202C112.021 12.1358 112.344 12.627 112.572 13.1938C112.819 13.7605 112.942 14.3651 112.942 15.0074V25.0392H109.323Z" fill="#FAFAFA"/>
<path d="M27.9076 24.7643L16.5425 18.0018C16.1419 17.7635 15.8931 17.3411 15.8828 16.8819L15.5904 3.85345C15.5592 2.46221 17.4404 1.94634 18.1503 3.15149L22.1323 9.91171C22.2495 10.1108 22.3128 10.336 22.316 10.5658L22.3526 13.2092C22.3591 13.6766 22.6127 14.1071 23.0224 14.3463L25.3397 15.6991C25.5411 15.8167 25.7085 15.983 25.8257 16.1821L29.8078 22.9423C30.5176 24.1475 29.1212 25.4864 27.9076 24.7643Z" fill="#EF233C"/>
<path d="M14.1172 16.8819L14.4096 3.85345C14.4408 2.46221 12.5596 1.94634 11.8497 3.15149L7.86773 9.91172C7.75048 10.1108 7.68724 10.336 7.68405 10.5658L7.64736 13.2092C7.64088 13.6766 7.38728 14.1071 6.97759 14.3463L4.66035 15.6991C4.45887 15.8167 4.29151 15.983 4.17426 16.1821L0.192246 22.9423C-0.517625 24.1475 0.878769 25.4864 2.09239 24.7643L13.4575 18.0018C13.8581 17.7635 14.1069 17.3411 14.1172 16.8819Z" fill="#EF233C"/>
<path d="M14.417 19.4005L2.75944 25.6665C1.51459 26.3357 1.9994 28.1904 3.41914 28.1904H11.3832C11.6177 28.1904 11.8483 28.1315 12.053 28.0193L14.4069 26.7288C14.8231 26.5006 15.3303 26.5006 15.7464 26.7288L18.1004 28.0193C18.305 28.1315 18.5356 28.1904 18.7701 28.1904H26.7342C28.1539 28.1904 28.6387 26.3357 27.3939 25.6665L15.7364 19.4005C15.3254 19.1797 14.8279 19.1797 14.417 19.4005Z" fill="#EF233C"/>
<path d="M119.117 21.5098H115.588V25.0392H119.117V21.5098Z" fill="#EF233C"/>
</g>
</svg>
