<svg width="116" height="38" viewBox="0 0 116 38" fill="none" xmlns="http://www.w3.org/2000/svg">
<g clip-path="url(#clip0_4004_4687)">
<path d="M33.844 18.346H35.4415V30.8793H37.5959V18.346H39.1934V16.3367H33.844V18.346Z" fill="#222222"/>
<path d="M44.9509 28.5198V26.0312C44.9509 25.3495 44.7468 24.7594 44.394 24.2802L42.3135 21.4782C42.0532 21.1282 41.9046 20.704 41.9046 20.1881V19.1005C41.9046 18.5845 42.0902 18.3446 42.443 18.3446H44.6721V16.3352H41.5703C40.3817 16.3352 39.7871 17.1278 39.7871 18.713V20.5191C39.7871 21.1825 39.9543 21.7725 40.3255 22.2518L42.4245 25.0354C42.6848 25.3854 42.8143 25.8463 42.8143 26.3622V28.1316C42.8143 28.6476 42.6286 28.8875 42.2758 28.8875H39.8241V30.8778H43.1308C44.3378 30.8778 44.9509 30.1036 44.9509 28.5184V28.5198Z" fill="#222222"/>
<path d="M47.9785 18.7145V28.5206C47.9785 30.1058 48.5731 30.88 49.7617 30.88H52.5292V28.8897H50.5789C50.2446 28.8897 50.096 28.6688 50.096 28.208V19.0285C50.096 18.586 50.2446 18.3468 50.5789 18.3468H52.5292V16.3374H49.7617C48.5731 16.3374 47.9785 17.13 47.9785 18.7152V18.7145Z" fill="#222222"/>
<path d="M56.8395 20.0046H54.7775C53.626 20.0046 53.0684 20.7422 53.0684 22.2166V28.6681C53.0684 30.1608 53.6253 30.88 54.7775 30.88H56.8395C57.9726 30.88 58.5487 30.1615 58.5487 28.6681V22.2166C58.5487 20.7422 57.9726 20.0046 56.8395 20.0046ZM56.5237 28.3914C56.5237 28.7782 56.375 28.9815 56.0777 28.9815H55.5208C55.242 28.9815 55.0933 28.7789 55.0933 28.3914V22.4932C55.0933 22.1065 55.242 21.9032 55.5208 21.9032H56.0777C56.375 21.9032 56.5237 22.1058 56.5237 22.4932V28.3914Z" fill="#222222"/>
<path d="M62.8186 22.4933V30.8801H64.8436V22.2173C64.8436 20.7429 64.2675 20.0054 63.1344 20.0054H60.162C59.6236 20.0054 59.3633 20.2637 59.3633 20.798V30.8801H61.3883V22.0881C61.3883 21.9773 61.4252 21.9039 61.5369 21.9039H62.3727C62.67 21.9039 62.8186 22.1065 62.8186 22.494V22.4933Z" fill="#222222"/>
<path d="M68.0383 23.8935C67.778 23.6352 67.6478 23.3218 67.6478 22.9534V22.4741C67.6478 22.0874 67.8335 21.9025 68.1678 21.9025H70.2482V20.0039H67.369C66.2175 20.0039 65.6598 20.704 65.6598 22.1234V23.3027C65.6598 23.8554 65.827 24.2428 66.1798 24.6113L68.1301 26.694C68.3719 26.9523 68.4829 27.2657 68.4829 27.6341V28.4084C68.4829 28.7951 68.3342 28.98 67.9814 28.98H65.6406V30.8786H68.8171C69.9317 30.8786 70.5263 30.1785 70.5263 28.7591V27.2664C70.5263 26.7688 70.3407 26.3263 70.0064 25.9762L68.0376 23.8935H68.0383Z" fill="#222222"/>
<path d="M73.7981 30.8794V21.8482H75.0058V20.0047H73.7981V18.0144H71.7738V20.0047H70.6777V21.8482H71.7738V30.8794H73.7981Z" fill="#222222"/>
<path d="M75.5625 20.7972V30.8793H77.5875V22.0874C77.5875 21.9766 77.6245 21.9032 77.7361 21.9032H79.1665V20.0046H76.3613C75.8228 20.0046 75.5625 20.263 75.5625 20.7972Z" fill="#222222"/>
<path d="M85.2967 30.0867V20.0046H83.2717V28.7965C83.2717 28.9257 83.2163 28.9807 83.1231 28.9807H82.2689C81.9715 28.9807 81.8414 28.7782 81.8414 28.3907V20.0039H79.8164V28.6667C79.8164 30.1594 80.3733 30.8786 81.5256 30.8786H84.4788C85.0172 30.8786 85.296 30.6203 85.296 30.086L85.2967 30.0867Z" fill="#222222"/>
<path d="M86.1113 22.2166V28.6681C86.1113 30.1608 86.6683 30.88 87.8205 30.88H90.3839V28.9815H88.5638C88.285 28.9815 88.1363 28.7789 88.1363 28.3914V22.4932C88.1363 22.1065 88.285 21.9032 88.5638 21.9032H90.3839V20.0046H87.8205C86.669 20.0046 86.1113 20.7422 86.1113 22.2166Z" fill="#222222"/>
<path d="M93.9311 30.8794V21.8482H95.1389V20.0047H93.9311V18.0144H91.9069V20.0047H90.8108V21.8482H91.9069V30.8794H93.9311Z" fill="#222222"/>
<path d="M97.7223 16.65H95.6973V19.2487H97.7223V16.65Z" fill="#222222"/>
<path d="M97.7223 20.0046H95.6973V30.8793H97.7223V20.0046Z" fill="#222222"/>
<path d="M104.019 28.6675V22.2159C104.019 20.7415 103.443 20.004 102.31 20.004H100.248C99.0967 20.004 98.5391 20.7415 98.5391 22.2159V28.6675C98.5391 30.1602 99.0967 30.8794 100.248 30.8794H102.31C103.443 30.8794 104.019 30.1609 104.019 28.6675ZM101.994 28.3915C101.994 28.7783 101.846 28.9815 101.548 28.9815H100.992C100.713 28.9815 100.564 28.779 100.564 28.3915V22.4933C100.564 22.1065 100.713 21.9032 100.992 21.9032H101.548C101.846 21.9032 101.994 22.1058 101.994 22.4933V28.3915Z" fill="#222222"/>
<path d="M108.609 20.0046H105.637C105.098 20.0046 104.838 20.263 104.838 20.7972V30.8793H106.863V22.0874C106.863 21.9766 106.9 21.9032 107.012 21.9032H107.847C108.145 21.9032 108.293 22.1058 108.293 22.4932V30.88H110.318V22.2173C110.318 20.7429 109.742 20.0053 108.609 20.0053V20.0046Z" fill="#222222"/>
<path d="M115.481 25.977L113.512 23.8942C113.252 23.6359 113.122 23.3225 113.122 22.9541V22.4749C113.122 22.0881 113.308 21.9032 113.642 21.9032H115.723V20.0046H112.844C111.692 20.0046 111.134 20.7048 111.134 22.1241V23.3035C111.134 23.8561 111.302 24.2436 111.654 24.612L113.605 26.6947C113.847 26.9531 113.957 27.2664 113.957 27.6348V28.4091C113.957 28.7959 113.809 28.9808 113.456 28.9808H111.115V30.8793H114.292C115.406 30.8793 116.001 30.1792 116.001 28.7599V27.2671C116.001 26.7696 115.815 26.327 115.481 25.977Z" fill="#222222"/>
<path d="M15.1699 32.8782V37.9231H18.2568L19.0414 37.1446V33.6567L18.2568 32.8782H15.1699ZM18.01 37.0289H16.2013V33.7717H18.01V37.0289Z" fill="#222222"/>
<path d="M25.8966 35.7606H28.046V34.9249H25.8966V33.7427H28.4095V32.8781H24.8652V37.9224H28.482V37.0578H25.8966V35.7606Z" fill="#222222"/>
<path d="M36.4339 36.9999H35.882L34.9887 32.8781H33.8848L35.0683 37.9224H37.2469L38.4312 32.8781H37.3273L36.4339 36.9999Z" fill="#222222"/>
<path d="M45.0252 35.7605H47.1754V34.9249H45.0252V33.7427H47.5381V32.8781H43.9939V37.9224H47.6107V37.0578H45.0252V35.7605Z" fill="#222222"/>
<path d="M56.0385 37.0578H54.3243V32.8782H53.293V37.9224H56.9681V35.9046H56.0385V37.0578Z" fill="#222222"/>
<path d="M63.402 32.8781L62.6174 33.6566V37.1446L63.402 37.9231H66.0457L66.8303 37.1446V33.6566L66.0457 32.8781H63.402ZM65.7698 37.0288H63.6779V33.7716H65.7698V37.0288Z" fill="#222222"/>
<path d="M72.6541 32.8781V37.9231H73.6854V36.8418H75.7915L76.576 36.0633V33.6566L75.7915 32.8781H72.6541ZM75.5446 36.0054H73.6854V33.7138H75.5446V36.0054Z" fill="#222222"/>
<path d="M84.7239 35.2129L83.5183 32.8781H82.2693V37.9224H83.2786V34.1676L84.4771 36.4522H84.9707L86.1692 34.1676V37.9224H87.1785V32.8781H85.9295L84.7239 35.2129Z" fill="#222222"/>
<path d="M94.0489 35.7605H96.1991V34.9249H94.0489V33.7427H96.5618V32.8781H93.0176V37.9224H96.6344V37.0578H94.0489V35.7605Z" fill="#222222"/>
<path d="M105.523 36.4452L103.395 32.8782H102.312V37.9224H103.286V34.3554L105.414 37.9224H106.496V32.8782H105.523V36.4452Z" fill="#222222"/>
<path d="M112.105 33.7716H113.507V37.9224H114.538V33.7716H115.94V32.8781H112.105V33.7716Z" fill="#222222"/>
<path d="M28.3776 17.725C28.214 16.0438 28.4231 14.3443 28.2674 12.6645C28.0682 12.5185 27.8335 12.4352 27.6052 12.3434C25.6954 11.6143 23.7942 10.8613 21.8873 10.1209C19.9192 9.37278 17.9739 8.56607 15.9994 7.83418C15.9688 5.22349 16.0136 2.60998 15.9511 0H15.131C15.0456 2.48153 15.1381 4.97082 15.1082 7.45517C14.4417 7.24132 13.8151 6.91384 13.1373 6.72963C12.8947 6.69575 12.7233 6.90325 12.532 7.01406C9.82419 9.02977 7.08936 11.0081 4.37516 13.0139C3.93844 13.3428 3.46047 13.6258 3.06572 14.0098C2.97183 14.2653 3.01522 14.5426 3.00242 14.8094C3.01664 16.3558 2.99601 17.9022 3.0074 19.4506C2.03936 19.9821 1.10546 20.5813 0.108978 21.0612C-0.0368321 21.6986 0.000865065 22.3556 0.0150904 23.0043C0.0847947 24.6953 -0.078797 26.3913 0.0926186 28.0788C0.355077 28.0802 0.63176 28.1367 0.874302 28.0111C1.58344 27.6963 2.27906 27.3526 2.99601 27.0604C3.00882 28.1508 2.96543 29.2427 3.0202 30.3331C3.0266 30.6062 3.35876 30.6429 3.56574 30.6331C5.78419 30.6345 8.00334 30.6345 10.2239 30.6295C10.4601 30.6726 10.7431 30.4898 10.7389 30.2392C10.7531 28.0245 10.7225 25.8104 10.7552 23.5943C11.4039 23.3134 12.0547 23.0325 12.6892 22.7205C12.707 26.6115 12.6728 30.5025 12.6842 34.3956C12.687 34.6532 12.6828 34.9108 12.6799 35.1691H12.6991V38.0007H13.6003V33.6792H13.5683C13.5711 29.9597 13.5747 26.2403 13.5825 22.5222C13.5825 22.2251 13.5534 21.9315 13.5178 21.6393C12.5128 21.6103 11.6714 22.3041 10.7552 22.638C10.7261 20.2821 10.7453 17.9262 10.7424 15.5703C10.4935 15.463 10.1983 15.3183 9.95577 15.5251C7.94217 16.6607 5.93071 17.7991 3.92564 18.9488C3.85452 17.4342 3.85594 15.9119 3.9292 14.398C4.23362 14.2194 4.52809 14.0239 4.80975 13.8122C7.27287 11.9559 9.79289 10.1767 12.2624 8.32611C12.5732 8.09179 12.8969 7.87511 13.2333 7.68032C13.8485 7.94075 14.4652 8.19766 15.1025 8.39316C15.1381 10.3235 15.1139 12.2524 15.1281 14.1827C15.1445 14.4142 15.1039 14.7431 15.4048 14.8073C18.1346 15.6394 20.8865 16.413 23.6199 17.2387C24.8938 17.5874 26.1414 18.0243 27.4281 18.3256C27.4444 20.6046 27.4281 22.8829 27.4359 25.1618C23.9016 24.5789 20.3666 23.9945 16.8323 23.4164C16.3067 23.3346 15.7789 23.1948 15.2433 23.2717L15.2497 23.3713C15.1217 23.8272 15.1815 24.3078 15.1701 24.7765C15.1914 26.6277 15.1473 28.4825 15.2071 30.3345C15.2441 30.4051 15.3173 30.5462 15.3529 30.6168C19.4669 30.6535 23.5794 30.6218 27.6927 30.6331C27.9594 30.662 28.3577 30.59 28.3015 30.235C28.3485 28.9018 28.3065 27.5657 28.3179 26.2318C29.362 26.3553 30.399 26.5318 31.4332 26.7265C31.5726 26.6701 31.7113 26.6157 31.8507 26.5628C31.8877 23.9627 31.8913 21.3626 31.8522 18.7632C30.7141 18.3588 29.5427 18.0454 28.3776 17.7257V17.725ZM2.99957 26.0885C2.29897 26.3807 1.61402 26.7103 0.913422 27.0025C0.905598 25.2246 0.909866 23.4468 0.905598 21.6696C1.61473 21.2871 2.30893 20.8813 3.00313 20.4747C3.01593 22.3458 2.9889 24.2182 2.99957 26.0892V26.0885ZM9.84339 29.7353C7.85611 29.7494 5.86883 29.7035 3.88297 29.7416C3.89079 28.7218 3.86661 27.7041 3.88794 26.6856C5.83966 25.7314 7.86749 24.9353 9.82561 23.9973C9.86473 25.9085 9.83201 27.8226 9.84339 29.7353ZM3.94627 19.9235C5.93995 18.8698 7.86251 17.6848 9.85691 16.6296C9.81636 18.7689 9.87113 20.9074 9.82774 23.0466C7.84046 23.9091 5.87594 24.8273 3.88012 25.6707C3.92351 23.7566 3.80259 21.8327 3.94627 19.9235ZM27.4302 29.7628C23.6448 29.7049 19.8545 29.7085 16.0691 29.7614C16.0592 27.9066 16.0592 26.0504 16.0577 24.1956C19.8545 24.7835 23.6335 25.471 27.4316 26.0377C27.443 27.2792 27.4302 28.5206 27.4302 29.7635V29.7628ZM27.4387 17.4314C23.6356 16.3134 19.8339 15.1849 16.0257 14.0818C15.9951 12.3152 16.008 10.5472 16.003 8.78063C19.8161 10.279 23.6448 11.7386 27.4466 13.2673C27.4188 14.6549 27.4352 16.0438 27.4387 17.4314ZM31.0235 19.4111C30.9716 21.4798 31.0562 23.5498 30.9979 25.6178C30.9944 25.658 30.9915 25.7385 30.988 25.7766C30.1046 25.5662 29.1963 25.4794 28.3079 25.2917C28.3292 23.0805 28.3221 20.8693 28.3115 18.658C29.2304 18.8507 30.1195 19.162 31.0257 19.4062L31.0242 19.4111H31.0235Z" fill="#222222"/>
</g>
<defs>
<clipPath id="clip0_4004_4687">
<rect width="116" height="38" fill="white"/>
</clipPath>
</defs>
</svg>
