<svg width="160" height="53" viewBox="0 0 160 53" fill="none" xmlns="http://www.w3.org/2000/svg">
<g clip-path="url(#clip0_250_10918)">
<path d="M46.6798 25.588H48.8833V43.0686H51.8549V25.588H54.0584V22.7854H46.6798V25.588Z" fill="white"/>
<path d="M62.0014 39.7778V36.3069C62.0014 35.3559 61.7198 34.533 61.2332 33.8646L58.3636 29.9566C58.0046 29.4684 57.7995 28.8768 57.7995 28.1572V26.6402C57.7995 25.9207 58.0556 25.586 58.5422 25.586H61.6168V22.7834H57.3384C55.6991 22.7834 54.8789 23.8889 54.8789 26.0998V28.6189C54.8789 29.5442 55.1095 30.3671 55.6216 31.0355L58.5167 34.9179C58.8757 35.4062 59.0543 36.049 59.0543 36.7685V39.2364C59.0543 39.956 58.7982 40.2906 58.3116 40.2906H54.9299V43.0666H59.4909C61.1557 43.0666 62.0014 41.9867 62.0014 39.7758V39.7778Z" fill="white"/>
<path d="M66.1777 26.1018V39.7787C66.1777 41.9897 66.9979 43.0695 68.6373 43.0695H72.4546V40.2936H69.7645C69.3034 40.2936 69.0984 39.9855 69.0984 39.3427V26.5398C69.0984 25.9226 69.3034 25.5889 69.7645 25.5889H72.4546V22.7864H68.6373C66.9979 22.7864 66.1777 23.8918 66.1777 26.1028V26.1018Z" fill="white"/>
<path d="M78.3988 27.9012H75.5548C73.9664 27.9012 73.1973 28.9299 73.1973 30.9863V39.9845C73.1973 42.0665 73.9654 43.0696 75.5548 43.0696H78.3988C79.9617 43.0696 80.7563 42.0675 80.7563 39.9845V30.9863C80.7563 28.9299 79.9617 27.9012 78.3988 27.9012ZM77.9633 39.5986C77.9633 40.1381 77.7582 40.4216 77.3481 40.4216H76.58C76.1954 40.4216 75.9903 40.1391 75.9903 39.5986V31.3722C75.9903 30.8327 76.1954 30.5492 76.58 30.5492H77.3481C77.7582 30.5492 77.9633 30.8317 77.9633 31.3722V39.5986Z" fill="white"/>
<path d="M86.6488 31.3722V43.0695H89.4419V30.9873C89.4419 28.9309 88.6472 27.9022 87.0844 27.9022H82.9845C82.2419 27.9022 81.8828 28.2625 81.8828 29.0077V43.0695H84.6759V30.8071C84.6759 30.6526 84.7269 30.5502 84.8809 30.5502H86.0337C86.4438 30.5502 86.6488 30.8327 86.6488 31.3731V31.3722Z" fill="white"/>
<path d="M93.8462 33.3252C93.4871 32.9649 93.3076 32.5278 93.3076 32.014V31.3456C93.3076 30.8062 93.5637 30.5483 94.0248 30.5483H96.8944V27.9003H92.923C91.3347 27.9003 90.5656 28.8768 90.5656 30.8564V32.5013C90.5656 33.272 90.7961 33.8125 91.2827 34.3263L93.9728 37.2312C94.3063 37.5915 94.4594 38.0286 94.4594 38.5424V39.6223C94.4594 40.1617 94.2543 40.4196 93.7677 40.4196H90.5391V43.0676H94.9205C96.4578 43.0676 97.278 42.0911 97.278 40.1115V38.0295C97.278 37.3356 97.0219 36.7183 96.5608 36.2301L93.8452 33.3252H93.8462Z" fill="white"/>
<path d="M101.79 43.0686V30.4725H103.456V27.9013H101.79V25.1254H98.9981V27.9013H97.4863V30.4725H98.9981V43.0686H101.79Z" fill="white"/>
<path d="M104.225 29.0067V43.0686H107.018V30.8062C107.018 30.6516 107.069 30.5492 107.223 30.5492H109.196V27.9012H105.326C104.584 27.9012 104.225 28.2615 104.225 29.0067Z" fill="white"/>
<path d="M117.649 41.9631V27.9013H114.856V40.1637C114.856 40.3438 114.779 40.4206 114.651 40.4206H113.473C113.062 40.4206 112.883 40.1381 112.883 39.5977V27.9003H110.09V39.9826C110.09 42.0645 110.858 43.0676 112.447 43.0676H116.521C117.263 43.0676 117.648 42.7073 117.648 41.9621L117.649 41.9631Z" fill="white"/>
<path d="M118.775 30.9863V39.9845C118.775 42.0665 119.544 43.0696 121.133 43.0696H124.669V40.4216H122.158C121.774 40.4216 121.568 40.1391 121.568 39.5986V31.3722C121.568 30.8327 121.774 30.5492 122.158 30.5492H124.669V27.9012H121.133C119.545 27.9012 118.775 28.9299 118.775 30.9863Z" fill="white"/>
<path d="M129.562 43.0686V30.4725H131.228V27.9013H129.562V25.1254H126.77V27.9013H125.258V30.4725H126.77V43.0686H129.562Z" fill="white"/>
<path d="M134.789 23.2225H131.996V26.847H134.789V23.2225Z" fill="white"/>
<path d="M134.789 27.9012H131.996V43.0686H134.789V27.9012Z" fill="white"/>
<path d="M143.475 39.9835V30.9853C143.475 28.929 142.68 27.9003 141.118 27.9003H138.273C136.685 27.9003 135.916 28.929 135.916 30.9853V39.9835C135.916 42.0655 136.685 43.0686 138.273 43.0686H141.118C142.68 43.0686 143.475 42.0665 143.475 39.9835ZM140.682 39.5987C140.682 40.1381 140.477 40.4216 140.067 40.4216H139.299C138.914 40.4216 138.709 40.1391 138.709 39.5987V31.3722C138.709 30.8328 138.914 30.5493 139.299 30.5493H140.067C140.477 30.5493 140.682 30.8318 140.682 31.3722V39.5987Z" fill="white"/>
<path d="M149.803 27.9012H145.703C144.961 27.9012 144.602 28.2615 144.602 29.0067V43.0686H147.395V30.8062C147.395 30.6516 147.446 30.5492 147.6 30.5492H148.752C149.163 30.5492 149.368 30.8317 149.368 31.3722V43.0696H152.161V30.9873C152.161 28.9309 151.366 27.9022 149.803 27.9022V27.9012Z" fill="white"/>
<path d="M159.283 36.2311L156.568 33.3262C156.209 32.9659 156.03 32.5288 156.03 32.015V31.3466C156.03 30.8071 156.286 30.5492 156.747 30.5492H159.617V27.9012H155.646C154.057 27.9012 153.288 28.8777 153.288 30.8573V32.5022C153.288 33.273 153.519 33.8134 154.005 34.3273L156.695 37.2322C157.029 37.5925 157.182 38.0295 157.182 38.5434V39.6232C157.182 40.1627 156.977 40.4206 156.49 40.4206H153.262V43.0686H157.643C159.18 43.0686 160.001 42.0921 160.001 40.1125V38.0305C160.001 37.3365 159.745 36.7193 159.283 36.2311Z" fill="white"/>
<path d="M20.9238 45.8563V52.8927H25.1816L26.2637 51.8069V46.9421L25.1816 45.8563H20.9238ZM24.8412 51.6455H22.3464V47.1025H24.8412V51.6455Z" fill="white"/>
<path d="M35.7194 49.8766H38.6842V48.7111H35.7194V47.0622H39.1855V45.8564H34.2969V52.8917H39.2856V51.6859H35.7194V49.8766Z" fill="white"/>
<path d="M50.2544 51.6051H49.4931L48.2609 45.8563H46.7383L48.3708 52.8917H51.3757L53.0092 45.8563H51.4866L50.2544 51.6051Z" fill="white"/>
<path d="M62.1042 49.8765H65.0699V48.711H62.1042V47.0622H65.5703V45.8563H60.6816V52.8917H65.6703V51.6858H62.1042V49.8765Z" fill="white"/>
<path d="M77.2928 51.6858H74.9284V45.8563H73.5059V52.8917H78.575V50.0773H77.2928V51.6858Z" fill="white"/>
<path d="M87.4493 45.8563L86.3672 46.9421V51.8069L87.4493 52.8927H91.0959L92.178 51.8069V46.9421L91.0959 45.8563H87.4493ZM90.7152 51.6455H87.83V47.1025H90.7152V51.6455Z" fill="white"/>
<path d="M100.213 45.8563V52.8927H101.635V51.3846H104.54L105.622 50.2988V46.9421L104.54 45.8563H100.213ZM104.2 50.2181H101.635V47.0218H104.2V50.2181Z" fill="white"/>
<path d="M116.86 49.1127L115.197 45.8563H113.475V52.8917H114.867V47.6548L116.52 50.8412H117.201L118.854 47.6548V52.8917H120.246V45.8563H118.523L116.86 49.1127Z" fill="white"/>
<path d="M129.724 49.8766H132.689V48.7111H129.724V47.0622H133.19V45.8564H128.301V52.8917H133.29V51.6859H129.724V49.8766Z" fill="white"/>
<path d="M145.552 50.8314L142.616 45.8563H141.123V52.8917H142.466V47.9166L145.4 52.8917H146.894V45.8563H145.552V50.8314Z" fill="white"/>
<path d="M154.627 47.1025H156.56V52.8917H157.982V47.1025H159.916V45.8563H154.627V47.1025Z" fill="white"/>
<path d="M39.1415 24.7217C38.9159 22.3769 39.2043 20.0065 38.9895 17.6637C38.7148 17.4599 38.391 17.3438 38.0761 17.2158C35.442 16.199 32.8196 15.1486 30.1894 14.116C27.4748 13.0726 24.7916 11.9474 22.0682 10.9266C22.026 7.2854 22.0878 3.64024 22.0014 0H20.8703C20.7526 3.46108 20.8801 6.93299 20.8389 10.398C19.9196 10.0997 19.0553 9.64299 18.1204 9.38606C17.7858 9.33881 17.5494 9.62822 17.2855 9.78277C13.5506 12.5942 9.77843 15.3534 6.03471 18.151C5.43234 18.6097 4.77307 19.0044 4.22858 19.5399C4.09908 19.8963 4.15892 20.2831 4.14126 20.6552C4.16088 22.812 4.13243 24.9688 4.14813 27.1285C2.81291 27.8698 1.52478 28.7055 0.150314 29.3749C-0.050803 30.2638 0.00119319 31.1802 0.0208144 32.0849C0.116958 34.4435 -0.108685 36.8089 0.12775 39.1626C0.489761 39.1645 0.871393 39.2433 1.20593 39.0681C2.18405 38.629 3.14353 38.1496 4.13243 37.7421C4.15009 39.263 4.09025 40.7858 4.16579 42.3067C4.17462 42.6876 4.63277 42.7388 4.91826 42.725C7.97819 42.727 11.0391 42.727 14.102 42.7201C14.4277 42.7802 14.8181 42.5252 14.8122 42.1758C14.8319 39.0868 14.7897 35.9988 14.8348 32.9078C15.7295 32.516 16.6272 32.1243 17.5023 31.6892C17.5268 37.116 17.4797 42.5429 17.4954 47.9728C17.4994 48.3321 17.4935 48.6914 17.4896 49.0517H17.516V53.001H18.7591V46.9736H18.7149C18.7188 41.7859 18.7237 36.5983 18.7345 31.4125C18.7345 30.9981 18.6943 30.5886 18.6452 30.1811C17.259 30.1407 16.0984 31.1084 14.8348 31.574C14.7946 28.2881 14.8211 25.0023 14.8172 21.7164C14.4738 21.5668 14.0666 21.365 13.7321 21.6534C10.9547 23.2373 8.18028 24.8251 5.41468 26.4286C5.31657 24.3162 5.31854 22.1928 5.41958 20.0814C5.83948 19.8323 6.24564 19.5596 6.63414 19.2643C10.0315 16.6754 13.5074 14.1938 16.9137 11.6127C17.3424 11.2859 17.7888 10.9837 18.2528 10.712C19.1014 11.0753 19.952 11.4336 20.831 11.7062C20.8801 14.3985 20.8467 17.0888 20.8664 19.7811C20.8889 20.104 20.833 20.5627 21.248 20.6523C25.0133 21.8129 28.809 22.8918 32.5792 24.0435C34.3363 24.5298 36.0571 25.1391 37.8318 25.5594C37.8544 28.738 37.8318 31.9156 37.8426 35.0941C32.9677 34.281 28.0919 33.466 23.217 32.6598C22.492 32.5456 21.764 32.3507 21.0253 32.458L21.0341 32.5968C20.8575 33.2327 20.9399 33.903 20.9242 34.5567C20.9537 37.1387 20.8929 39.7256 20.9753 42.3086C21.0263 42.4071 21.1273 42.604 21.1764 42.7024C26.8508 42.7536 32.5233 42.7093 38.1968 42.725C38.5647 42.7654 39.1141 42.665 39.0366 42.1699C39.1013 40.3104 39.0434 38.4469 39.0591 36.5865C40.4993 36.7587 41.9297 37.0048 43.3562 37.2765C43.5485 37.1978 43.7398 37.122 43.932 37.0481C43.9831 33.4217 43.988 29.7952 43.934 26.1697C42.3643 25.6057 40.7485 25.1676 39.1415 24.7217ZM4.13734 36.3866C3.171 36.7942 2.22624 37.2539 1.25989 37.6614C1.2491 35.1817 1.25499 32.7021 1.2491 30.2234C2.22722 29.6899 3.18473 29.1239 4.14224 28.5569C4.1599 31.1665 4.12262 33.777 4.13734 36.3866ZM13.5771 41.4729C10.836 41.4926 8.09493 41.4286 5.35582 41.4818C5.36661 40.0593 5.33325 38.6399 5.36268 37.2194C8.05471 35.8885 10.8517 34.7781 13.5526 33.4699C13.6065 36.1356 13.5614 38.8052 13.5771 41.4729ZM5.44313 27.7881C8.19304 26.3184 10.8448 24.6656 13.5957 23.194C13.5398 26.1776 13.6154 29.1603 13.5555 32.1439C10.8144 33.3469 8.10474 34.6275 5.35189 35.8039C5.41174 33.1342 5.24496 30.4508 5.44313 27.7881ZM37.8348 41.5113C32.6136 41.4306 27.3855 41.4355 22.1643 41.5093C22.1506 38.9224 22.1506 36.3335 22.1486 33.7465C27.3855 34.5665 32.5979 35.5253 37.8367 36.3157C37.8524 38.0473 37.8348 39.7778 37.8348 41.5113ZM37.8465 24.3122C32.6008 22.753 27.3571 21.1789 22.1045 19.6403C22.0623 17.1764 22.0799 14.7106 22.0731 12.2467C27.3325 14.3365 32.6136 16.3722 37.8573 18.5044C37.8191 20.4397 37.8416 22.3769 37.8465 24.3122ZM42.7911 27.0734C42.7195 29.9586 42.8362 32.8458 42.7558 35.73C42.7509 35.7861 42.7469 35.8984 42.742 35.9515C41.5236 35.6582 40.2707 35.5371 39.0454 35.2753C39.0748 32.1912 39.065 29.1071 39.0503 26.0231C40.3178 26.2918 41.5442 26.7259 42.794 27.0665L42.7911 27.0734Z" fill="white"/>
</g>
<defs>
<clipPath id="clip0_250_10918">
<rect width="160" height="53" fill="white"/>
</clipPath>
</defs>
</svg>
